<svg xmlns="http://www.w3.org/2000/svg" viewBox="0 0 138.93 138.92"><path d="M126.87,69.46A57.41,57.41,0,1,1,69.46,12.05a57.41,57.41,0,0,1,57.41,57.41M69.46,0a69.46,69.46,0,1,0,69.47,69.46A69.46,69.46,0,0,0,69.46,0" fill="#00437b"/><path d="M69.46,0a69.46,69.46,0,1,0,69.47,69.46A69.46,69.46,0,0,0,69.46,0" fill="none"/><path d="M16.48,28.26l.74-.93,7.71,2-.84,1.06-1.83-.52L20.13,32.6,21,34.28l-.81,1Zm4.6,1.32-3-.82,1.5,2.77Z" fill="#fff"/><path d="M20.81,23.16l1-.94,4,1-.75-4,1-.94,5,5.29-.92.87-3.58-3.78.68,4.06,0,0-4-.92,3.57,3.78-.92.86Z" fill="#fff"/><path d="M28.24,16.49l4.36-3.15.67.93-3.33,2.4,1.11,1.53L34,16.07l.67.93-3,2.13,1.15,1.58,3.37-2.43.67.92-4.41,3.18Z" fill="#fff"/><path d="M34.75,12l2.84-1.56a3,3,0,0,1,2.19-.37,2.16,2.16,0,0,1,1.28,1.09h0a2.18,2.18,0,0,1-.45,2.76l3.05,1.47-1.33.73-2.79-1.36-1.4.77,1.22,2.22-1.12.61Zm4.49,1.65c.81-.44,1.08-1.14.73-1.79v0c-.37-.68-1.07-.78-1.9-.33l-1.63.9,1.18,2.14Z" fill="#fff"/><path d="M42.3,8.11l1.17-.51,2.89,6.68-1.18.51Z" fill="#fff"/><path d="M46.84,10.1v0a3.67,3.67,0,0,1,2.41-4.73,3.77,3.77,0,0,1,3.06.2L51.82,6.7a2.91,2.91,0,0,0-2.22-.23,2.44,2.44,0,0,0-1.49,3.18v0a2.45,2.45,0,0,0,3.08,1.71,2.83,2.83,0,0,0,1.7-1.53l1,.53a3.76,3.76,0,0,1-2.41,2.14A3.66,3.66,0,0,1,46.84,10.1Z" fill="#fff"/><path d="M56.9,3.5l1.17-.21,4.45,6.65-1.33.24-1-1.6-3.38.61-.43,1.86-1.29.23Zm2.59,4.05L57.74,4.91,57,8Z" fill="#fff"/><path d="M63.43,2.57l1.19,0,4.11,4.86-.22-5,1.26-.05.31,7.27L69,9.62l-4.23-5L65,9.79l-1.25.05Z" fill="#fff"/><path d="M77.13,6.42v0a3.68,3.68,0,0,1,4.33-3.07,3.8,3.8,0,0,1,2.61,1.6l-1,.79a2.87,2.87,0,0,0-1.85-1.23,2.44,2.44,0,0,0-2.8,2.12v0a2.44,2.44,0,0,0,1.92,2.94A2.88,2.88,0,0,0,82.59,9l.67,1a3.76,3.76,0,0,1-3.13.77A3.65,3.65,0,0,1,77.13,6.42Z" fill="#fff"/><path d="M85,7.83v0a3.8,3.8,0,0,1,7.26,2.27v0A3.8,3.8,0,0,1,85,7.83Zm6,1.89v0a2.48,2.48,0,0,0-1.58-3.21A2.45,2.45,0,0,0,86.27,8.2v0a2.48,2.48,0,0,0,1.59,3.2A2.45,2.45,0,0,0,91,9.72Z" fill="#fff"/><path d="M95.66,7.65l1.16.55-2.58,5.53,3.46,1.62-.49,1-4.62-2.16Z" fill="#fff"/><path d="M102.26,10.89l1.09.66-3.17,5.23,3.27,2-.6,1-4.36-2.64Z" fill="#fff"/><path d="M108.47,14.84l4.26,3.3-.7.9-3.25-2.52L107.63,18l2.88,2.23-.7.9-2.88-2.23-1.2,1.54L109,23l-.7.9L104,20.58Z" fill="#fff"/><path d="M111.86,22.18l0,0a3.7,3.7,0,0,1,5.3,0,3.92,3.92,0,0,1,1.28,2.67l-1.26.11a2.84,2.84,0,0,0-.88-2,2.46,2.46,0,0,0-3.48.14l0,0a2.44,2.44,0,0,0-.09,3.58,3,3,0,0,0,1.63.85l1-1L114,25.26l.79-.78L117,26.67l-2.15,2.15a4.63,4.63,0,0,1-3-1.34A3.61,3.61,0,0,1,111.86,22.18Z" fill="#fff"/><path d="M121,26.43l3.3,4.26-.9.7-2.52-3.25-1.49,1.16,2.23,2.88-.9.7L118.46,30l-1.54,1.19,2.55,3.29-.9.7-3.33-4.3Z" fill="#fff"/><path d="M36.22,54.07h4.93L54.49,84.61H48.86l-3.07-7.32H31.45l-3.12,7.32H22.88Zm7.62,18.49L38.6,60.44,33.4,72.56Z" fill="#00437b"/><path d="M56.46,69.53v-.08A15.35,15.35,0,0,1,72.1,53.77,15.81,15.81,0,0,1,84,58.49l-3.42,3.94c-2.43-2.25-5-3.77-8.49-3.77-5.76,0-10,4.77-10,10.7v.09c0,5.93,4.2,10.74,10,10.74,3.72,0,6.1-1.47,8.7-3.9l3.43,3.47a15.67,15.67,0,0,1-12.31,5.37A15.26,15.26,0,0,1,56.46,69.53Z" fill="#00437b"/><path d="M87.58,69.53v-.08a15.44,15.44,0,0,1,15.63-15.68,16.39,16.39,0,0,1,11.66,4.11l-3.38,4A11.9,11.9,0,0,0,103,58.66c-5.59,0-9.84,4.9-9.84,10.7v.09c0,6.23,4.12,10.83,10.31,10.83a12.41,12.41,0,0,0,7.32-2.3V72.3H103V67.67H116V80.41a19.37,19.37,0,0,1-12.65,4.72C93.81,85.13,87.58,78.37,87.58,69.53Z" fill="#00437b"/><path d="M68.15,109.1a9.37,9.37,0,0,0-4.72,4.72c-1.35,3.47.7,3.86,2.26,2.27a25.37,25.37,0,0,1,2.62-3" fill="none" stroke="#00437b" stroke-linecap="round" stroke-width="0.94"/><path d="M68,74.81s.48-9.61.13-10.89S65,60.16,64.19,59.33a1.62,1.62,0,0,1-.34-.41c-.06-.13.81-1,.81-1s.19-.25.3-.23,1.92,1.48,2.21,1.62a.58.58,0,0,0,.81-.29l0-2.51" fill="none" stroke="#00437b" stroke-width="0.93"/><path d="M71.89,105.17l-.07,15s0,2-1,2.32a1.51,1.51,0,0,1-1.67-.31s-.74-.44-.74-2.47-.1-15.8-.1-15.8M81.4,54.12a8,8,0,0,1,1.3,6.56,11.87,11.87,0,0,1-3.18,5.93c-1.69,1.79-5.83,4-6.88,4.06m-.46,28.81.35-15.31.78-26.24-.66,19.23M64.48,55.8l2.12.55s4.07.79,6.14,1.15A1.91,1.91,0,0,1,73.41,61m.08-11.25.11-3.89-1,24.79" fill="none" stroke="#00437b" stroke-width="0.93"/><path d="M64,37.49a7.14,7.14,0,0,1-4.12,0c-1.37-.34-3.61-1-5.51,1C52,40.94,54.8,45,64.51,48.19c3,1,10.17,2.37,10.17,2.37s4.79.9,6.72,3.56" fill="none" stroke="#00437b" stroke-linecap="round" stroke-width="0.93"/><path d="M68.9,34.36s1.16-.1,1.49.59-.65,1.4-.65,1.4a4.79,4.79,0,0,1-2.88.65,5.56,5.56,0,0,0-2.15.26,9,9,0,0,1-3.56.51" fill="none" stroke="#00437b" stroke-miterlimit="1" stroke-width="0.93"/><path d="M65.61,32.37a.86.86,0,1,1-.86-.85.85.85,0,0,1,.86.85" fill="#00437b" stroke="#00437b" stroke-width="0.56"/><path d="M67.74,49.11" fill="none" stroke="#00437b" stroke-width="0.93"/><path d="M67.76,37.1" fill="none" stroke="#00437b" stroke-width="0.93"/><path d="M68,63.7s-10.84,4-7.68,12.21a10.9,10.9,0,0,0,3,4.13A12.84,12.84,0,0,0,67,82.32c1.12.47,3.13,1.24,4.29,1.6.8.25,2.85.77,2.85,1.91,0,1-1.17,1.37-1.59,1.47" fill="none" stroke="#00437b" stroke-linecap="round" stroke-width="0.94"/><path d="M72.88,70.62a17.46,17.46,0,0,0,8-5.64,10.09,10.09,0,0,0,1.73-8.42s-.69-4.46-7.25-5.85-9.71-2.19-9.71-2.19-7.3-2-10.66-5.42.37-5.42.37-5.42,1.1-.88,3.71-.38,3,.75,5.11.13A10,10,0,0,1,67.74,37c.35-.06,2.6-.35,2.73-1.59,0,0,.11-1.65-2.54-.55,0,0-1.52.68-2,.81s-2.26.54-2.37.57l2.69-.67S68,34.83,69,34.35c.3-.13.53-.25.66-.32.55-.32,1.09-.42,2-1a2.5,2.5,0,0,0,1.15-2.83,2.89,2.89,0,0,0-2.35-1.89,9.08,9.08,0,0,0-1.17-.09l-1.62-.1c-.64,0-1.28-.1-1.92-.2a14.85,14.85,0,0,0-5.14-.51,9.3,9.3,0,0,0-3.24,1.33s-11.29,1.6-12.25,9.8C44,49.11,56.2,55.05,73,57.56a1.69,1.69,0,0,1,1.35,1.65,2,2,0,0,1-1.13,2.13l-.32,9.28" fill="none" stroke="#00437b" stroke-linecap="round" stroke-width="0.94"/><path d="M72.6,93.91c4.09-.63,8.5-2.66,9-6.87.47-3.8-2.46-6.4-5.61-8.09-.35-.19-6.56-3-7.81-3.71-1.49-.9-2-2.17-.18-2.84" fill="none" stroke="#00437b" stroke-linecap="round" stroke-width="0.94"/><path d="M72.21,112a16.84,16.84,0,0,0,3.12-1.62,5.49,5.49,0,0,0,2.28-4c.19-3.62-2.38-5.12-4-5.81s-4.23-1.25-6.06-2.76a2.3,2.3,0,0,1-1-1.82,1.68,1.68,0,0,1,1.61-1.51" fill="none" stroke="#00437b" stroke-linecap="round" stroke-width="0.94"/><path d="M68.24,88.5s-6.15,1.65-7.09,7.26c0,0-.72,5.59,6.93,8.08l4.1,1.41c.31.12,1.19.84,1.18,1.45s-.27,1-1.39,1.25" fill="none" stroke="#00437b" stroke-linecap="round" stroke-width="0.94"/><circle cx="64.76" cy="32.37" r="1.13" transform="matrix(0, -1, 1, 0, 32.07, 96.97)" fill="#00437b"/><path d="M72.6,84.36,72.14,100a17.83,17.83,0,0,1-3.92-1.69V83" fill="none" stroke="#00437b" stroke-linecap="round" stroke-width="0.93"/><path d="M68.31,103.93l3.58,1.27-.07,15s.07,2.31-1.44,2.43a1.55,1.55,0,0,1-1.6-.94,3.49,3.49,0,0,1-.42-1.53Z" fill="none" stroke="#00437b" stroke-width="0.93"/><path d="M73.2,61.24" fill="none" stroke="#00437b" stroke-width="0.93"/><path d="M67.93,27.74v-6.8A2.4,2.4,0,0,1,69.84,18l4.74-1.43s.52-1,.52.67V33.19h.48l3.82-3.6L80,29s1.06-1.42,1.63-.6S83.34,31,83.34,31s1,1.21-.66,2.93-5,5.35-5,5.35l-1.78,2a6.93,6.93,0,0,0-2.26,3.75,23.9,23.9,0,0,0-.23,2.4l0,2.67" fill="none" stroke="#00437b" stroke-width="0.93"/><line x1="67.74" y1="49.11" x2="67.74" y2="36.98" fill="none" stroke="#00437b" stroke-width="0.93"/><path d="M77,74.63" fill="none" stroke="#00437b" stroke-width="0.93"/><path d="M10.51,93.27h0a3.73,3.73,0,0,1,5,1.83,3.69,3.69,0,0,1-1.75,5h0a3.73,3.73,0,0,1-5-1.83A3.69,3.69,0,0,1,10.51,93.27Zm2.69,5.66h0a2.5,2.5,0,0,0,1.28-3.35,2.47,2.47,0,0,0-3.38-1.11h0a2.49,2.49,0,0,0-1.26,3.34A2.44,2.44,0,0,0,13.2,98.93Z" fill="#fff"/><path d="M17.92,99.91l2.95,4.54-1,.63-2.25-3.46L16,102.7l2,3.07-1,.63-2-3.07-2.48,1.61-.7-1.07Z" fill="#fff"/><path d="M21.7,111.38l0,0a3.7,3.7,0,0,1,5.3,0,3.92,3.92,0,0,1,1.25,2.69l-1.26.09a2.85,2.85,0,0,0-.86-2,2.45,2.45,0,0,0-3.48.11h0a2.43,2.43,0,0,0-.12,3.58,3,3,0,0,0,1.62.87l1-1-1.3-1.33.79-.78,2.16,2.21-2.18,2.14a4.67,4.67,0,0,1-2.92-1.38A3.6,3.6,0,0,1,21.7,111.38Z" fill="#fff"/><path d="M32.43,116.35l.93.72-2,7.75L30.34,124l.49-1.84L28.11,120l-1.66.93-1-.8ZM31.15,121l.79-3.07-2.76,1.54Z" fill="#fff"/><path d="M33.31,124.77l1.13-.39a3.37,3.37,0,0,0,1.49,2c.68.4,1.3.34,1.57-.13h0c.27-.45.16-.84-.84-1.8-1.13-1.11-1.65-2-1-3.1v0a2.23,2.23,0,0,1,3.2-.54,4.05,4.05,0,0,1,1.8,2.14l-1.08.48a3.26,3.26,0,0,0-1.31-1.65c-.64-.39-1.22-.28-1.46.13v0c-.29.48-.13.86.9,1.87s1.53,2,.91,3v0c-.69,1.17-2,1.32-3.34.54A4.55,4.55,0,0,1,33.31,124.77Z" fill="#fff"/><path d="M43.79,124.78l-2.11-1,.49-1.08,5.38,2.44-.49,1.08-2.1-1-2.51,5.55-1.18-.53Z" fill="#fff"/><path d="M48.86,125.68l3.09,1A3,3,0,0,1,53.73,128a2.2,2.2,0,0,1,.11,1.68v0a2.18,2.18,0,0,1-2.3,1.59l1,3.21L51.13,134l-.94-2.95-1.53-.48L47.9,133l-1.22-.39Zm1.92,4.37c.87.28,1.57,0,1.79-.71v0c.23-.74-.18-1.32-1.08-1.6l-1.77-.55L49,129.5Z" fill="#fff"/><path d="M55.17,131.41v0a3.72,3.72,0,0,1,4.37-3.08,3.69,3.69,0,0,1,3.12,4.31v0a3.73,3.73,0,0,1-4.38,3.08A3.68,3.68,0,0,1,55.17,131.41Zm6.16,1v0a2.48,2.48,0,0,0-2-2.95,2.45,2.45,0,0,0-2.84,2.12v0a2.47,2.47,0,0,0,2,2.94A2.44,2.44,0,0,0,61.33,132.44Z" fill="#fff"/><path d="M64.84,129.12l5.39.18,0,1.14-4.11-.13L66,132.2l3.64.12,0,1.14L66,133.34l-.06,1.95,4.16.14,0,1.14-5.44-.18Z" fill="#fff"/><path d="M71.87,129.29l1.17-.11,4.34,4.65-.46-5,1.25-.11.66,7.23-1.06.1-4.46-4.78.47,5.14-1.25.12Z" fill="#fff"/><path d="M82.1,129.12l-2.25.5-.26-1.16,5.76-1.28.26,1.15-2.25.51,1.32,5.94-1.26.29Z" fill="#fff"/><path d="M86.71,126.78l5.1-1.77.37,1.08-3.88,1.35.62,1.78,3.44-1.2.38,1.08-3.44,1.2.64,1.85,3.93-1.37.38,1.08-5.14,1.79Z" fill="#fff"/><path d="M93.34,124.37l2.91-1.44a3,3,0,0,1,2.2-.28,2.25,2.25,0,0,1,1.24,1.14v0a2.19,2.19,0,0,1-.56,2.74l3,1.59-1.36.68L98,127.34l-1.43.71,1.12,2.27-1.14.56Zm4.42,1.83c.82-.4,1.13-1.09.8-1.75v0c-.34-.7-1-.83-1.88-.41l-1.67.82L96.09,127Z" fill="#fff"/><path d="M101.84,124.17h0a3.72,3.72,0,0,1,1-5.25,3.68,3.68,0,0,1,5.23,1h0a3.72,3.72,0,0,1-1.05,5.25A3.68,3.68,0,0,1,101.84,124.17Zm5.18-3.5v0a2.49,2.49,0,0,0-3.49-.76,2.46,2.46,0,0,0-.59,3.5v0a2.49,2.49,0,0,0,3.49.75A2.44,2.44,0,0,0,107,120.67Z" fill="#fff"/><path d="M107.3,115.83l1-.85,4,4.58,2.87-2.53.77.87-3.82,3.37Z" fill="#fff"/><path d="M114.36,114.46l0,0a3.74,3.74,0,0,1-.27-5.35,3.7,3.7,0,0,1,5.32-.34h0a3.74,3.74,0,0,1,.27,5.35A3.7,3.7,0,0,1,114.36,114.46Zm4.17-4.68,0,0a2.47,2.47,0,1,0-3.29,3.67h0a2.48,2.48,0,0,0,3.57-.13A2.45,2.45,0,0,0,118.53,109.78Z" fill="#fff"/><path d="M120.47,107.38l0,0a3.7,3.7,0,0,1-1.06-5.19,3.94,3.94,0,0,1,2.36-1.79l.36,1.21a2.87,2.87,0,0,0-1.77,1.27,2.46,2.46,0,0,0,.83,3.38h0a2.43,2.43,0,0,0,3.53-.63,3,3,0,0,0,.51-1.76l-1.14-.75-1,1.54-.93-.61,1.71-2.58,2.54,1.69a4.61,4.61,0,0,1-.73,3.15A3.61,3.61,0,0,1,120.47,107.38Z" fill="#fff"/><path d="M126.75,98.47l-5.22.64.67-1.36,3.77-.39-2-3.27.65-1.31,2.64,4.53,2.59,1.28-.57,1.15Z" fill="#fff"/></svg>